<?xml version="1.0" encoding="utf-8"?>
<!-- Generator: Adobe Illustrator 25.0.1, SVG Export Plug-In . SVG Version: 6.00 Build 0)  -->
<svg version="1.1" id="Layer_1" xmlns="http://www.w3.org/2000/svg" xmlns:xlink="http://www.w3.org/1999/xlink" x="0px" y="0px"
	 viewBox="0 0 457.9 239.6" style="enable-background:new 0 0 457.9 239.6;" xml:space="preserve">
<style type="text/css">
	.st0{fill:#2E3D57;}
</style>
<path class="st0" d="M111.3,54c-12.6,0-24.2,4.5-30.8,15.9C73.4,58.5,62.5,54,49.4,54c-22.7,0-40.7,16.3-40.7,43v58.3
	c0,6.6,5.1,12,11.8,12s11.8-5.4,11.8-12V96.9c0-14.1,8.1-21,18.2-21c10.1,0,18.2,6.8,18.2,21v58.5c0,6.6,5.1,12,11.8,12
	c6.4,0,11.8-5.4,11.8-12V96.9c0-14.1,7.9-21,18-21c10.3,0,18.2,6.8,18.2,21v58.5c0,6.6,5.1,12,11.8,12s11.8-5.4,11.8-12V97.1
	C152,70.3,134,54,111.3,54z"/>
<path class="st0" d="M229.7,54c-32.6,0-56.8,25.1-56.8,56.8s24.2,56.8,56.8,56.8c32.8,0,56.8-25.1,56.8-56.8
	C286.4,79.1,262.4,54,229.7,54z M261.8,125c-4.1,2.8-9.2,4.7-13.8,5.1c-15.1,1.3-22.9,8.4-25.3,23.3c-0.1,0.5-0.3,0.8-0.5,1.1
	c-0.1,0.1-0.2,0.3-0.3,0.5l-0.6,0.9l-1-0.3c-10.7-3.1-18.9-9.4-25.7-19.6l-1.1-1.6l1.9-0.5c1.8-0.5,3.5-0.9,5.2-1.4
	c3.7-1,7.1-2,10.6-2.6c6.8-1.3,12.8-2.8,17.1-8.3c1.8-2.3,2.1-4.2,1.7-4.5c-0.1-0.1-0.2-0.2-0.4-0.3c-1.1-0.9-1.8-1.5-1.9-2.2
	c-2.8-10.6-3.5-11.4-13-15.3l-0.8-0.3l-0.4-5.7l-24.1,10.6l0-2.1c-0.1-12.8,18-31.7,31.8-33.1l1.5-0.2v1.5c0,0.9,0,1.8,0,2.7
	c0,2.3-0.1,4.5,0.1,6.7c0.1,0.4,1,1.4,1.5,1.6c1.2,0.3,2.5,0.2,3.9,0.2c0.6,0,1.3-0.1,1.9,0c8.8,0.1,14.9,4.3,17.9,12.3
	c0.6,1.6,1.1,2,2.8,2c2.3-0.1,4.7,0,6.9,0c2.7,0,5.4,0.1,8.1-0.1c1.2-0.1,2.9,0,4.1,1.1c1.2,1.1,1.4,2.8,1.5,4.5
	C271.9,108.6,271,118.7,261.8,125z M216.3,112.8c0-1,0.8-1.9,1.9-1.9s1.9,0.8,1.9,1.9s-0.8,1.9-1.9,1.9S216.3,113.9,216.3,112.8z"/>
<path class="st0" d="M355.5,54c-27,0-48.2,19.3-48.2,49.9v51.4c0,6.6,5.1,12,11.8,12c6.6,0,11.8-5.4,11.8-12v-52.3
	c0-17.8,10.9-27.2,24.6-27.2s24.6,9.4,24.6,27.2v52.3c0,6.6,5.1,12,11.8,12c6.4,0,11.8-5.4,11.8-12V104
	C403.7,73.3,382.5,54,355.5,54z"/>
<path class="st0" d="M437.7,54.3c-6.6,0-11.8,5.1-11.8,11.8v89.3c0,6.6,5.1,12,11.8,12c6.6,0,11.8-5.4,11.8-12V66
	C449.5,59.4,444.3,54.3,437.7,54.3z"/>
<path class="st0" d="M437.7,41.8c7.7,0,13.9-6.4,13.9-13.9c0-7.7-6.2-13.9-13.9-13.9c-7.7,0-13.9,6.2-13.9,13.9
	C423.8,35.4,430,41.8,437.7,41.8z"/>
<path class="st0" d="M266.1,94.9c-2.7,0.1-5.5,0.1-8.1,0.1c-2.3,0-4.6,0-6.9,0c-1.7,0.1-2.2-0.3-2.8-2c-3-8-9.1-12.2-17.9-12.3
	c-0.6,0-1.3,0-1.9,0c-1.4,0.1-2.7,0.1-3.9-0.2c-0.5-0.1-1.4-1.1-1.5-1.6c-0.2-2.2-0.2-4.4-0.1-6.7c0-0.9,0-1.8,0-2.7v-1.5l-1.5,0.2
	c-13.8,1.4-31.9,20.3-31.8,33.1l0,2.1l24.1-10.6l0.4,5.7l0.8,0.3c9.5,3.9,10.2,4.8,13,15.3c0.2,0.7,0.9,1.3,1.9,2.2
	c0.2,0.2,0.3,0.3,0.4,0.3c0.3,0.3,0.1,2.2-1.7,4.5c-4.2,5.4-10.2,6.9-17.1,8.3c-3.5,0.7-7,1.6-10.6,2.6c-1.7,0.5-3.4,0.9-5.2,1.4
	l-1.9,0.5l1.1,1.6c6.8,10.3,14.9,16.5,25.7,19.6l1,0.3l0.6-0.9c0.1-0.2,0.2-0.3,0.3-0.5c0.2-0.3,0.5-0.6,0.5-1.1
	c2.4-14.8,10.2-22,25.3-23.3c4.5-0.4,9.7-2.3,13.8-5.1c9.2-6.3,10.1-16.4,9.8-24.5c0-1.7-0.3-3.4-1.5-4.5
	C269,95,267.3,94.9,266.1,94.9z M260.3,122.7c-3.7,2.5-8.4,4.3-12.4,4.6c-16.3,1.4-25.1,9.4-27.8,25.2c-9-2.8-16.1-8.2-22-16.6
	c1.1-0.3,2.3-0.6,3.4-0.9c3.6-1,7-1.9,10.4-2.6c7.1-1.4,13.9-3.1,18.7-9.3c2-2.5,3.5-6.1,1.5-8.2c-0.1-0.1-0.3-0.3-0.6-0.5
	c-0.3-0.2-0.9-0.7-1.1-1c-2.9-11-4.2-12.7-13.7-16.7l-0.5-7.9l-23.7,10.4c1.7-10.9,16.1-25.7,27.6-27.9c0,0.4,0,0.7,0,1.1
	c0,2.3-0.1,4.7,0.2,7c0.2,1.6,2,3.6,3.6,3.9c1.6,0.4,3.1,0.3,4.7,0.2c0.6,0,1.2-0.1,1.8,0c7.6,0.1,12.8,3.6,15.3,10.5
	c1,2.8,2.6,3.8,5.5,3.8c2.3-0.1,4.6,0,6.8,0c2.7,0,5.5,0.1,8.3-0.1c1.1-0.1,1.8,0.1,2.1,0.4c0.4,0.3,0.5,1.1,0.6,2.5
	C269.3,111.7,266.7,118.3,260.3,122.7z"/>
<path class="st0" d="M239.1,96.1c-1,0-1.9,0.8-1.9,1.9s0.8,1.9,1.9,1.9S241,99,241,98C241,96.9,240.2,96.1,239.1,96.1z"/>
<g>
	<path class="st0" d="M8.7,197.6c0-1.2,1-2.1,2.2-2.1s2.2,0.9,2.2,2.1c0,1.2-0.9,2.2-2.2,2.2C9.7,199.7,8.7,198.7,8.7,197.6z
		 M9.3,203.1h3.2v17.9H9.3V203.1z"/>
	<path class="st0" d="M35.8,210.7v10.3h-3.2v-10c0-3.5-1.8-5.2-4.8-5.2c-3.5,0-5.7,2.1-5.7,6v9.2h-3.2v-17.9h3.1v2.7
		c1.3-1.8,3.6-2.9,6.5-2.9C32.7,202.9,35.8,205.4,35.8,210.7z"/>
	<path class="st0" d="M58.8,210.7v10.3h-3.2v-10c0-3.5-1.8-5.2-4.8-5.2c-3.4,0-5.7,2.1-5.7,6v9.2h-3.2v-17.9h3.1v2.7
		c1.3-1.8,3.6-2.9,6.5-2.9C55.8,202.9,58.8,205.4,58.8,210.7z"/>
	<path class="st0" d="M63.3,212.1c0-5.4,4-9.1,9.3-9.1s9.3,3.8,9.3,9.1c0,5.4-3.9,9.2-9.3,9.2C67.3,221.3,63.3,217.4,63.3,212.1z
		 M78.7,212.1c0-3.8-2.6-6.3-6-6.3s-6.1,2.5-6.1,6.3s2.6,6.3,6.1,6.3S78.7,215.9,78.7,212.1z"/>
	<path class="st0" d="M101.9,203.1L94,221.1h-3.3l-7.9-17.9h3.4l6.2,14.4l6.3-14.4H101.9z"/>
	<path class="st0" d="M118.6,210.2v10.8h-3.1v-2.4c-1.1,1.6-3.1,2.6-5.9,2.6c-4.1,0-6.6-2.2-6.6-5.3c0-2.9,1.9-5.2,7.2-5.2h5.1v-0.6
		c0-2.7-1.6-4.3-4.8-4.3c-2.1,0-4.3,0.8-5.7,1.9l-1.3-2.4c1.9-1.5,4.5-2.3,7.4-2.3C115.8,202.9,118.6,205.3,118.6,210.2z
		 M115.3,215.6v-2.5h-5c-3.2,0-4.1,1.2-4.1,2.8c0,1.8,1.5,2.9,4,2.9C112.6,218.8,114.5,217.6,115.3,215.6z"/>
	<path class="st0" d="M134.7,220c-1,0.9-2.5,1.2-3.9,1.2c-3.6,0-5.7-2-5.7-5.6v-9.9H122v-2.7h3.1v-3.9h3.2v3.9h5.1v2.7h-5.1v9.7
		c0,1.9,1,3,2.8,3c0.9,0,1.9-0.3,2.5-0.9L134.7,220z"/>
	<path class="st0" d="M138,197.6c0-1.2,0.9-2.1,2.2-2.1s2.2,0.9,2.2,2.1c0,1.2-0.9,2.2-2.2,2.2C139,199.7,138,198.7,138,197.6z
		 M138.6,203.1h3.2v17.9h-3.2V203.1z"/>
	<path class="st0" d="M164,203.1l-7.9,17.9h-3.3l-7.9-17.9h3.4l6.2,14.4l6.3-14.4H164z"/>
	<path class="st0" d="M182.6,213.2h-14.6c0.4,3.1,2.9,5.2,6.5,5.2c2.1,0,3.9-0.7,5.2-2.2l1.8,2.1c-1.6,1.9-4.1,2.9-7.1,2.9
		c-5.8,0-9.6-3.8-9.6-9.2c0-5.3,3.8-9.1,9-9.1s8.9,3.7,8.9,9.2C182.7,212.5,182.7,212.9,182.6,213.2z M168.1,210.8h11.5
		c-0.3-3-2.6-5.1-5.8-5.1C170.7,205.7,168.4,207.8,168.1,210.8z"/>
	<path class="st0" d="M214.9,212.1c0,5.5-3.8,9.2-9.1,9.2c-2.5,0-4.8-1-6.3-2.9v9.3h-3.2v-24.5h3.1v2.9c1.5-2,3.8-3,6.4-3
		C211.1,202.9,214.9,206.6,214.9,212.1z M211.6,212.1c0-3.8-2.6-6.3-6.1-6.3c-3.4,0-6,2.5-6,6.3c0,3.8,2.6,6.3,6,6.3
		C209,218.4,211.6,215.9,211.6,212.1z"/>
	<path class="st0" d="M235.6,213.2H221c0.4,3.1,2.9,5.2,6.5,5.2c2.1,0,3.9-0.7,5.2-2.2l1.8,2.1c-1.6,1.9-4.1,2.9-7.1,2.9
		c-5.8,0-9.6-3.8-9.6-9.2c0-5.3,3.8-9.1,9-9.1s8.9,3.7,8.9,9.2C235.7,212.5,235.6,212.9,235.6,213.2z M221,210.8h11.5
		c-0.3-3-2.6-5.1-5.8-5.1C223.7,205.7,221.4,207.8,221,210.8z"/>
	<path class="st0" d="M250.3,220c-1,0.9-2.5,1.2-3.9,1.2c-3.6,0-5.7-2-5.7-5.6v-9.9h-3v-2.7h3v-3.9h3.2v3.9h5.1v2.7h-5.1v9.7
		c0,1.9,1,3,2.8,3c1,0,1.9-0.3,2.5-0.9L250.3,220z"/>
	<path class="st0" d="M293.1,210.7v10.3h-3.2v-10c0-3.5-1.7-5.2-4.6-5.2c-3.2,0-5.4,2.1-5.4,6v9.2h-3.2v-10c0-3.5-1.7-5.2-4.6-5.2
		c-3.2,0-5.4,2.1-5.4,6v9.2h-3.2v-17.9h3.1v2.7c1.3-1.8,3.5-2.9,6.2-2.9c2.7,0,5,1.1,6.2,3.3c1.4-2,3.9-3.3,6.9-3.3
		C290.1,202.9,293.1,205.4,293.1,210.7z"/>
	<path class="st0" d="M297.5,212.1c0-5.4,4-9.1,9.4-9.1s9.3,3.8,9.3,9.1c0,5.4-3.9,9.2-9.3,9.2S297.5,217.4,297.5,212.1z
		 M312.9,212.1c0-3.8-2.6-6.3-6-6.3c-3.5,0-6.1,2.5-6.1,6.3s2.6,6.3,6.1,6.3C310.4,218.4,312.9,215.9,312.9,212.1z"/>
	<path class="st0" d="M337.8,210.7v10.3h-3.2v-10c0-3.5-1.8-5.2-4.8-5.2c-3.5,0-5.7,2.1-5.7,6v9.2h-3.2v-17.9h3.1v2.7
		c1.3-1.8,3.6-2.9,6.5-2.9C334.7,202.9,337.8,205.4,337.8,210.7z"/>
	<path class="st0" d="M343.2,197.6c0-1.2,1-2.1,2.2-2.1s2.2,0.9,2.2,2.1c0,1.2-0.9,2.2-2.2,2.2C344.2,199.7,343.2,198.7,343.2,197.6
		z M343.8,203.1h3.2v17.9h-3.2V203.1z"/>
	<path class="st0" d="M363.3,220c-1,0.9-2.5,1.2-3.9,1.2c-3.6,0-5.7-2-5.7-5.6v-9.9h-3v-2.7h3v-3.9h3.2v3.9h5.1v2.7H357v9.7
		c0,1.9,1,3,2.8,3c1,0,1.9-0.3,2.5-0.9L363.3,220z"/>
	<path class="st0" d="M365,212.1c0-5.4,4-9.1,9.4-9.1s9.3,3.8,9.3,9.1c0,5.4-3.9,9.2-9.3,9.2C369,221.3,365,217.4,365,212.1z
		 M380.4,212.1c0-3.8-2.6-6.3-6-6.3c-3.5,0-6.1,2.5-6.1,6.3s2.6,6.3,6.1,6.3C377.8,218.4,380.4,215.9,380.4,212.1z"/>
	<path class="st0" d="M397.8,202.9v3.1c-0.3,0-0.5,0-0.8,0c-3.5,0-5.7,2.1-5.7,6.1v8.9h-3.2v-17.9h3.1v3
		C392.4,204,394.7,202.9,397.8,202.9z"/>
	<path class="st0" d="M401.2,197.6c0-1.2,1-2.1,2.2-2.1s2.2,0.9,2.2,2.1c0,1.2-0.9,2.2-2.2,2.2C402.2,199.7,401.2,198.7,401.2,197.6
		z M401.8,203.1h3.2v17.9h-3.2V203.1z"/>
	<path class="st0" d="M428.3,210.7v10.3H425v-10c0-3.5-1.8-5.2-4.8-5.2c-3.5,0-5.7,2.1-5.7,6v9.2h-3.2v-17.9h3.1v2.7
		c1.3-1.8,3.6-2.9,6.5-2.9C425.2,202.9,428.3,205.4,428.3,210.7z"/>
	<path class="st0" d="M451.6,203.1v15.5c0,6.3-3.2,9.2-9.3,9.2c-3.3,0-6.6-0.9-8.6-2.7l1.6-2.5c1.7,1.4,4.3,2.3,6.9,2.3
		c4.2,0,6.2-2,6.2-6v-1.4c-1.6,1.9-3.9,2.8-6.5,2.8c-5.2,0-9.1-3.5-9.1-8.7c0-5.2,3.9-8.7,9.1-8.7c2.7,0,5.1,1,6.6,2.9v-2.8
		L451.6,203.1L451.6,203.1z M448.4,211.6c0-3.5-2.6-5.8-6.2-5.8c-3.6,0-6.2,2.3-6.2,5.8c0,3.5,2.6,5.9,6.2,5.9
		C445.9,217.5,448.4,215.1,448.4,211.6z"/>
</g>
</svg>
